<svg xmlns="http://www.w3.org/2000/svg" width="40" height="40" viewBox="0 0 50 50">
  <g id="Group_95" data-name="Group 95" transform="translate(-1781 -21)">
    <g id="Ellipse_3" data-name="Ellipse 3" transform="translate(1781 21)" fill="#eafff4" stroke="#36b673" stroke-width="1">
      <circle cx="25" cy="25" r="25" stroke="none"/>
      <circle cx="25" cy="25" r="24.5" fill="none"/>
    </g>
    <g id="Polygon_2" data-name="Polygon 2" transform="translate(1818.714 31) rotate(90)" fill="#36b673" stroke-linecap="round" stroke-linejoin="round">
      <path d="M 26.51792907714844 25.21428108215332 L 3.482069969177246 25.21428108215332 C 2.938390016555786 25.21428108215332 2.452140092849731 24.93282127380371 2.181360006332397 24.46138191223145 C 1.910580039024353 23.98993110656738 1.912459969520569 23.4281005859375 2.186409950256348 22.95848083496094 L 13.70433044433594 3.213471174240112 C 13.97616004943848 2.747481107711792 14.46051979064941 2.469271183013916 15 2.469271183013916 C 15.53948020935059 2.469271183013916 16.02383995056152 2.747481107711792 16.29566955566406 3.213471174240112 L 27.81360054016113 22.95848083496094 C 28.08753967285156 23.4281005859375 28.08942985534668 23.98993110656738 27.81863975524902 24.46138191223145 C 27.54784965515137 24.93282127380371 27.06160926818848 25.21428108215332 26.51792907714844 25.21428108215332 Z" stroke="none"/>
      <path d="M 15 2.969270706176758 C 14.82730007171631 2.969270706176758 14.39743041992188 3.017610549926758 14.13621997833252 3.465400695800781 L 2.61829948425293 23.21041107177734 C 2.355049133300781 23.66169166564941 2.528249740600586 24.06143188476562 2.61492919921875 24.21235084533691 C 2.701610565185547 24.36326217651367 2.959629058837891 24.71428108215332 3.482070922851562 24.71428108215332 L 26.51791954040527 24.71428108215332 C 27.04037094116211 24.71428108215332 27.29838943481445 24.36326217651367 27.38507080078125 24.21234130859375 C 27.47175025939941 24.06143188476562 27.64495086669922 23.66169166564941 27.38170051574707 23.21041107177734 L 15.86378002166748 3.465400695800781 C 15.60256958007812 3.017610549926758 15.17269992828369 2.969270706176758 15 2.969270706176758 M 15 1.969274520874023 C 15.6708402633667 1.969274520874023 16.34167861938477 2.300025939941406 16.72756004333496 2.961530685424805 L 28.24547958374023 22.70654106140137 C 29.02325057983398 24.03986167907715 28.06151008605957 25.71428108215332 26.51791954040527 25.71428108215332 L 3.482070922851562 25.71428108215332 C 1.93848991394043 25.71428108215332 0.9767494201660156 24.03986167907715 1.754520416259766 22.70654106140137 L 13.27243995666504 2.961530685424805 C 13.6583194732666 2.300025939941406 14.3291597366333 1.969274520874023 15 1.969274520874023 Z" stroke="none" fill="#36b673"/>
    </g>
  </g>
</svg>
